# xmcd CD database file
#
# Track frame offsets:
#	150
#	12573
#	27895
#	54129
#	74529
#	78168
#	105861
#	109161
#	126495
#	128732
#	156836
#	160071
#	183171
#	200123
#
# Disc length: 3097 seconds
#
# Revision: 0
# Processed by: cddbd v1.5.2PL0 Copyright (c) Steve Scherf et al.
# Submitted via: CDex 1.51
#
DISCID=b30c170e
DTITLE=Samurai Jazz  - meme?
DYEAR=2006
DGENRE=Jazz
TTITLE0=neko genome
TTITLE1=isomorphism
TTITLE2=Annemone
TTITLE3=organic bicycle
TTITLE4=the teacher as holon
TTITLE5=repressive bird
TTITLE6=strange nords
TTITLE7=qos
TTITLE8=prisoner's dilemma
TTITLE9=E2
TTITLE10=probable negligence
TTITLE11=bird's-eye view
TTITLE12=comic
TTITLE13=les langages
EXTD=YEAR: 2006
EXTT0=
EXTT1=
EXTT2=
EXTT3=
EXTT4=
EXTT5=
EXTT6=
EXTT7=
EXTT8=
EXTT9=
EXTT10=
EXTT11=
EXTT12=
EXTT13=
PLAYORDER=
